<?xml version="1.0" encoding="iso-8859-1"?>
<!-- Generator: Adobe Illustrator 19.0.0, SVG Export Plug-In . SVG Version: 6.00 Build 0)  -->
<svg version="1.1" id="Capa_1" xmlns="http://www.w3.org/2000/svg" xmlns:xlink="http://www.w3.org/1999/xlink" x="0px" y="0px"
	 viewBox="0 0 511.999 511.999" style="enable-background:new 0 0 511.999 511.999;" xml:space="preserve">
<path style="fill:#79E59B;" d="M501.911,239.978c0,16.56-13.422,29.981-29.981,29.981c-16.438,0-29.981-13.332-29.981-29.981
	c0-16.56,13.422-29.981,29.981-29.981C488.392,209.996,501.911,223.346,501.911,239.978z"/>
<circle style="fill:#ED4C74;" cx="256.061" cy="255.971" r="39.975"/>
<path style="fill:#FEDF66;" d="M134.139,408.873c16.56,0,29.981,13.422,29.981,29.981c0,16.692-13.575,29.981-29.981,29.981
	c-16.56,0-29.981-13.422-29.981-29.981C104.157,422.267,117.611,408.873,134.139,408.873z"/>
<path style="fill:#78D4FF;" d="M101.289,61.278c9.3,19.611-4.909,42.784-27.113,42.784c-16.489,0-29.981-13.365-29.981-29.981
	c0-16.56,13.422-29.981,29.981-29.981C86.148,44.099,96.482,51.115,101.289,61.278z"/>
<path d="M503.389,185.303c-11.585-43.216-73.753-54.24-118.468-55.78c0.46-73.431-17.932-118.694-52.197-127.875
	c-34.935-9.369-79.334,21.611-119.817,83.152c-42.318-24.107-79.505-36.036-106.404-34.176
	c-7.439-10.208-19.458-16.518-32.328-16.518c-22.042,0-39.975,17.933-39.975,39.975c0,12.87,6.311,24.888,16.518,32.329
	c-1.861,26.897,10.07,64.089,34.176,106.405C23.352,253.296-7.625,297.693,1.741,332.628c8.746,32.642,50.717,51.002,118.643,52.147
	c-0.146,5.808-0.078,11.3,0.201,16.45c-15.576,5.55-26.421,20.329-26.421,37.63c0,22.042,17.933,39.975,39.975,39.975
	c2.37,0,4.704-0.217,6.996-0.623c9.899,16.964,23.008,27.992,38.267,32.082c45.737,12.258,94.177-44.067,120.133-83.646
	c41.909,23.306,111.373,51.81,145.194,17.988c33.893-33.908,5.183-103.609-18.177-145.52c11.227-7.324,21.381-14.733,30.32-22.125
	c4.753,1.94,9.847,2.968,15.058,2.968c22.042,0,39.975-17.933,39.975-39.975c0-9.215-3.185-18.064-8.872-25.096
	C505.784,204.63,505.913,194.703,503.389,185.303z M484.084,190.481c1,3.727,1.321,7.653,0.974,11.749
	c-4.185-1.457-8.617-2.228-13.129-2.228c-22.042,0-39.975,17.933-39.975,39.975c0,9.076,3.056,17.683,8.481,24.608
	c-7.223,5.749-15.247,11.523-24.002,17.265c-11.821-19.182-25.521-38.388-40.843-57.26c4.669-26.194,7.612-51.386,8.773-75.09
	C440.66,151.477,477.668,166.545,484.084,190.481z M292.853,399.585c-14.137-8.692-28.306-18.459-42.352-29.19
	c11.345-2.462,22.723-5.217,34.013-8.244c10.831-2.904,21.764-6.268,32.685-10.04C309.826,368.768,301.683,384.65,292.853,399.585z
	 M113.972,70.411c22.234,0.515,53.357,11.516,88.342,31.354c-12.361,20.856-23.435,43.484-33.011,67.444
	c-23.964,9.577-46.591,20.651-67.443,33.011c-19.837-34.983-30.838-66.108-31.354-88.342
	C95.375,116.125,116.232,95.382,113.972,70.411z M261.861,141.593c-11.4,2.404-22.856,5.14-34.247,8.191
	c-10.921,2.924-21.833,6.25-32.633,9.926c7.422-16.757,15.616-32.716,24.497-47.702
	C233.614,120.858,247.793,130.756,261.861,141.593z M358.634,204.613c-8.026-9.049-16.335-17.875-24.838-26.378
	c-8.309-8.309-16.957-16.465-25.851-24.385c19.632-2.682,38.518-4.197,56.415-4.516
	C363.469,166.952,361.548,185.452,358.634,204.613z M279.34,342.845c-16.318,4.374-32.817,8.163-49.121,11.295
	c-13.049-10.944-25.736-22.553-37.756-34.573c-12.313-12.312-24.236-25.362-35.511-38.839c3.389-14.265,7.315-29.68,12.234-48.039
	c4.323-16.151,9.555-32.288,15.553-48.043c15.749-5.995,31.887-11.228,48.044-15.553c16.458-4.408,33.047-8.137,49.384-11.119
	c13.019,10.971,25.619,22.521,37.494,34.397c12.017,12.017,23.625,24.704,34.573,37.755c-3.133,16.306-6.922,32.806-11.295,49.122
	c-4.303,16.06-9.507,32.124-15.469,47.825C311.442,333.265,295.272,338.574,279.34,342.845z M159.805,194.887
	c-3.677,10.801-7.002,21.713-9.925,32.632c-3.298,12.311-6.155,23.317-8.71,33.558c-10.633-13.836-20.36-27.785-29.067-41.693
	C127.088,210.504,143.046,202.309,159.805,194.887z M151.474,305.039c8.675,9.867,17.658,19.464,26.855,28.661
	c8.501,8.501,17.323,16.807,26.368,24.829c-21.912,3.318-43.256,5.38-62.984,6.062C143.413,347.55,146.634,327.873,151.474,305.039z
	 M362.246,284.419c3.026-11.289,5.781-22.667,8.244-34.014c10.638,13.924,20.328,27.971,28.963,41.99
	c-14.759,8.691-30.649,16.881-46.995,24.236C356.08,305.96,359.359,295.19,362.246,284.419z M280.868,37.135
	c12.479-9.746,30.705-20.465,46.683-16.183c23.98,6.425,37.729,46.677,37.374,108.384c-24.228,0.374-50.084,2.845-77.097,7.354
	c-19.052-15.562-38.42-29.526-57.735-41.619C246.506,70.282,263.939,50.356,280.868,37.135z M74.176,54.093
	c10.849,0,19.988,8.809,19.988,19.988c0,11.021-8.966,19.988-19.988,19.988c-11.109,0-19.988-9.056-19.988-19.988
	C54.188,63.059,63.154,54.093,74.176,54.093z M21.048,327.455c-4.282-15.972,6.437-34.202,16.183-46.681
	c13.221-16.929,33.146-34.361,57.936-50.776c11.694,18.678,25.137,37.404,40.079,55.826c-7.088,31.05-11.584,57.045-13.639,78.968
	C64.5,363.926,27.141,350.203,21.048,327.455z M114.151,438.855c0-11.101,8.877-19.988,19.988-19.988
	c11.021,0,19.988,8.966,19.988,19.988c0,11.133-9.062,19.988-19.988,19.988C123.117,458.842,114.151,449.876,114.151,438.855z
	 M231.386,474.699c-12.515,9.798-30.8,20.578-46.81,16.283c-9.731-2.608-18.174-9.723-25.182-21.167
	c9.162-7.47,14.72-18.759,14.72-30.961c0-19.876-14.583-36.404-33.609-39.463c-0.228-4.599-0.276-9.52-0.128-14.763
	c26.321-0.774,54.613-3.839,84.308-9.136c18.977,15.407,38.288,29.175,57.572,41.04
	C265.817,441.412,248.353,461.417,231.386,474.699z M430.593,430.499c-18.144,18.144-64.87,9.873-120.474-20.842
	c12.299-20.818,23.309-43.368,32.82-67.212c23.166-9.416,45.935-20.628,66.604-32.794
	C440.435,365.422,448.788,412.297,430.593,430.499z M471.93,259.965c-10.869,0-19.988-8.808-19.988-19.988
	c0-11.021,8.966-19.988,19.988-19.988c10.995,0,19.988,8.96,19.988,19.988C491.917,250.999,482.951,259.965,471.93,259.965z"/>
<path d="M256.063,205.999c-27.553,0-49.969,22.416-49.969,49.969s22.416,49.969,49.969,49.969s49.969-22.416,49.969-49.969
	S283.616,205.999,256.063,205.999z M256.063,285.949c-16.532,0-29.981-13.45-29.981-29.981s13.45-29.981,29.981-29.981
	s29.981,13.45,29.981,29.981S272.595,285.949,256.063,285.949z"/>
<g>
</g>
<g>
</g>
<g>
</g>
<g>
</g>
<g>
</g>
<g>
</g>
<g>
</g>
<g>
</g>
<g>
</g>
<g>
</g>
<g>
</g>
<g>
</g>
<g>
</g>
<g>
</g>
<g>
</g>
</svg>
